<mxfile host="Electron" agent="Mozilla/5.0 (Windows NT 10.0; Win64; x64) AppleWebKit/537.36 (KHTML, like Gecko) draw.io/25.0.2 Chrome/128.0.6613.186 Electron/32.2.5 Safari/537.36" version="25.0.2">
  <diagram name="Page-1" id="_AvqwLfRlWoU3XQGRxNd">
    <mxGraphModel dx="557" dy="360" grid="1" gridSize="10" guides="1" tooltips="1" connect="1" arrows="1" fold="1" page="1" pageScale="1" pageWidth="570" pageHeight="940" math="0" shadow="0">
      <root>
        <mxCell id="0" />
        <mxCell id="1" parent="0" />
        <mxCell id="BaHC3IfJtnNUTrTAW6SS-1" value="z = 27.66&lt;div&gt;x&lt;sub&gt;1&lt;/sub&gt;=2.3&lt;/div&gt;&lt;div&gt;x&lt;sub&gt;2&lt;/sub&gt;=2.6&lt;/div&gt;" style="rounded=0;whiteSpace=wrap;html=1;fillColor=none;" vertex="1" parent="1">
          <mxGeometry x="230" y="30" width="110" height="60" as="geometry" />
        </mxCell>
        <mxCell id="BaHC3IfJtnNUTrTAW6SS-2" value="z = 27&lt;div&gt;x&lt;sub&gt;1&lt;/sub&gt;=3&lt;/div&gt;&lt;div&gt;x&lt;sub&gt;2&lt;/sub&gt;=2&lt;/div&gt;" style="rounded=0;whiteSpace=wrap;html=1;fillColor=none;" vertex="1" parent="1">
          <mxGeometry x="100" y="120" width="110" height="60" as="geometry" />
        </mxCell>
        <mxCell id="BaHC3IfJtnNUTrTAW6SS-3" value="z =&lt;span style=&quot;color: rgba(0, 0, 0, 0); font-family: monospace; font-size: 0px; text-align: start; text-wrap: nowrap;&quot;&gt;%3CmxGraphModel%3E%3Croot%3E%3CmxCell%20id%3D%220%22%2F%3E%3CmxCell%20id%3D%221%22%20parent%3D%220%22%2F%3E%3CmxCell%20id%3D%222%22%20value%3D%22z%20%3D%2027.66%26lt%3Bdiv%26gt%3Bx%26lt%3Bsub%26gt%3B1%26lt%3B%2Fsub%26gt%3B%3D2.3%26lt%3B%2Fdiv%26gt%3B%26lt%3Bdiv%26gt%3Bx%26lt%3Bsub%26gt%3B2%26lt%3B%2Fsub%26gt%3B%3D2.6%26lt%3B%2Fdiv%26gt%3B%22%20style%3D%22rounded%3D0%3BwhiteSpace%3Dwrap%3Bhtml%3D1%3BfillColor%3Dnone%3B%22%20vertex%3D%221%22%20parent%3D%221%22%3E%3CmxGeometry%20x%3D%22230%22%20y%3D%2230%22%20width%3D%22110%22%20height%3D%2260%22%20as%3D%22geometry%22%2F%3E%3C%2FmxCell%3E%3C%2Froot%3E%3C%2FmxGraphModel%3E&lt;/span&gt;&amp;nbsp;26.75&lt;div&gt;x&lt;sub&gt;1&lt;/sub&gt;=1.75&lt;/div&gt;&lt;div&gt;x&lt;sub&gt;2&lt;/sub&gt;=3&lt;/div&gt;" style="rounded=0;whiteSpace=wrap;html=1;fillColor=none;" vertex="1" parent="1">
          <mxGeometry x="360" y="120" width="110" height="60" as="geometry" />
        </mxCell>
        <mxCell id="BaHC3IfJtnNUTrTAW6SS-4" value="No Solution" style="rounded=0;whiteSpace=wrap;html=1;fillColor=none;" vertex="1" parent="1">
          <mxGeometry x="460" y="230" width="100" height="40" as="geometry" />
        </mxCell>
        <mxCell id="BaHC3IfJtnNUTrTAW6SS-5" value="z =&lt;span style=&quot;color: rgba(0, 0, 0, 0); font-family: monospace; font-size: 0px; text-align: start; text-wrap: nowrap;&quot;&gt;%3CmxGraphModel%3E%3Croot%3E%3CmxCell%20id%3D%220%22%2F%3E%3CmxCell%20id%3D%221%22%20parent%3D%220%22%2F%3E%3CmxCell%20id%3D%222%22%20value%3D%22z%20%3D%2027.66%26lt%3Bdiv%26gt%3Bx%26lt%3Bsub%26gt%3B1%26lt%3B%2Fsub%26gt%3B%3D2.3%26lt%3B%2Fdiv%26gt%3B%26lt%3Bdiv%26gt%3Bx%26lt%3Bsub%26gt%3B2%26lt%3B%2Fsub%26gt%3B%3D2.6%26lt%3B%2Fdiv%26gt%3B%22%20style%3D%22rounded%3D0%3BwhiteSpace%3Dwrap%3Bhtml%3D1%3BfillColor%3Dnone%3B%22%20vertex%3D%221%22%20parent%3D%221%22%3E%3CmxGeometry%20x%3D%22230%22%20y%3D%2230%22%20width%3D%22110%22%20height%3D%2260%22%20as%3D%22geometry%22%2F%3E%3C%2FmxCell%3E%3C%2Froot%3E%3C%2FmxGraphModel%3E&lt;/span&gt;&amp;nbsp;25.75&lt;div&gt;x&lt;sub&gt;1&lt;/sub&gt;=1&lt;/div&gt;&lt;div&gt;x&lt;sub&gt;2&lt;/sub&gt;=3.4&lt;/div&gt;" style="rounded=0;whiteSpace=wrap;html=1;fillColor=none;" vertex="1" parent="1">
          <mxGeometry x="230" y="220" width="110" height="60" as="geometry" />
        </mxCell>
        <mxCell id="BaHC3IfJtnNUTrTAW6SS-6" value="z =&lt;span style=&quot;color: rgba(0, 0, 0, 0); font-family: monospace; font-size: 0px; text-align: start; text-wrap: nowrap;&quot;&gt;%3CmxGraphModel%3E%3Croot%3E%3CmxCell%20id%3D%220%22%2F%3E%3CmxCell%20id%3D%221%22%20parent%3D%220%22%2F%3E%3CmxCell%20id%3D%222%22%20value%3D%22z%20%3D%2027.66%26lt%3Bdiv%26gt%3Bx%26lt%3Bsub%26gt%3B1%26lt%3B%2Fsub%26gt%3B%3D2.3%26lt%3B%2Fdiv%26gt%3B%26lt%3Bdiv%26gt%3Bx%26lt%3Bsub%26gt%3B2%26lt%3B%2Fsub%26gt%3B%3D2.6%26lt%3B%2Fdiv%26gt%3B%22%20style%3D%22rounded%3D0%3BwhiteSpace%3Dwrap%3Bhtml%3D1%3BfillColor%3Dnone%3B%22%20vertex%3D%221%22%20parent%3D%221%22%3E%3CmxGeometry%20x%3D%22230%22%20y%3D%2230%22%20width%3D%22110%22%20height%3D%2260%22%20as%3D%22geometry%22%2F%3E%3C%2FmxCell%3E%3C%2Froot%3E%3C%2FmxGraphModel%3E&lt;/span&gt;&amp;nbsp;23&lt;div&gt;x&lt;sub&gt;1&lt;/sub&gt;=1&lt;/div&gt;&lt;div&gt;x&lt;sub&gt;2&lt;/sub&gt;=3&lt;/div&gt;" style="rounded=0;whiteSpace=wrap;html=1;fillColor=none;" vertex="1" parent="1">
          <mxGeometry x="100" y="320" width="110" height="60" as="geometry" />
        </mxCell>
        <mxCell id="BaHC3IfJtnNUTrTAW6SS-7" value="z =&lt;span style=&quot;color: rgba(0, 0, 0, 0); font-family: monospace; font-size: 0px; text-align: start; text-wrap: nowrap;&quot;&gt;%3CmxGraphModel%3E%3Croot%3E%3CmxCell%20id%3D%220%22%2F%3E%3CmxCell%20id%3D%221%22%20parent%3D%220%22%2F%3E%3CmxCell%20id%3D%222%22%20value%3D%22z%20%3D%2027.66%26lt%3Bdiv%26gt%3Bx%26lt%3Bsub%26gt%3B1%26lt%3B%2Fsub%26gt%3B%3D2.3%26lt%3B%2Fdiv%26gt%3B%26lt%3Bdiv%26gt%3Bx%26lt%3Bsub%26gt%3B2%26lt%3B%2Fsub%26gt%3B%3D2.6%26lt%3B%2Fdiv%26gt%3B%22%20style%3D%22rounded%3D0%3BwhiteSpace%3Dwrap%3Bhtml%3D1%3BfillColor%3Dnone%3B%22%20vertex%3D%221%22%20parent%3D%221%22%3E%3CmxGeometry%20x%3D%22230%22%20y%3D%2230%22%20width%3D%22110%22%20height%3D%2260%22%20as%3D%22geometry%22%2F%3E%3C%2FmxCell%3E%3C%2Froot%3E%3C%2FmxGraphModel%3E&lt;/span&gt;&amp;nbsp;24&lt;div&gt;x&lt;sub&gt;1&lt;/sub&gt;=0&lt;/div&gt;&lt;div&gt;x&lt;sub&gt;2&lt;/sub&gt;=4&lt;/div&gt;" style="rounded=0;whiteSpace=wrap;html=1;fillColor=none;" vertex="1" parent="1">
          <mxGeometry x="360" y="320" width="110" height="60" as="geometry" />
        </mxCell>
        <mxCell id="BaHC3IfJtnNUTrTAW6SS-10" value="" style="endArrow=none;html=1;rounded=0;exitX=0;exitY=1;exitDx=0;exitDy=0;entryX=1;entryY=0;entryDx=0;entryDy=0;endFill=0;" edge="1" parent="1" source="BaHC3IfJtnNUTrTAW6SS-1" target="BaHC3IfJtnNUTrTAW6SS-2">
          <mxGeometry width="50" height="50" relative="1" as="geometry">
            <mxPoint x="260" y="180" as="sourcePoint" />
            <mxPoint x="310" y="130" as="targetPoint" />
          </mxGeometry>
        </mxCell>
        <mxCell id="BaHC3IfJtnNUTrTAW6SS-11" value="" style="endArrow=none;html=1;rounded=0;exitX=1;exitY=1;exitDx=0;exitDy=0;entryX=0;entryY=0;entryDx=0;entryDy=0;endFill=0;" edge="1" parent="1" source="BaHC3IfJtnNUTrTAW6SS-1" target="BaHC3IfJtnNUTrTAW6SS-3">
          <mxGeometry width="50" height="50" relative="1" as="geometry">
            <mxPoint x="240" y="100" as="sourcePoint" />
            <mxPoint x="220" y="130" as="targetPoint" />
          </mxGeometry>
        </mxCell>
        <mxCell id="BaHC3IfJtnNUTrTAW6SS-12" value="" style="endArrow=none;html=1;rounded=0;exitX=1;exitY=1;exitDx=0;exitDy=0;entryX=0.5;entryY=0;entryDx=0;entryDy=0;endFill=0;" edge="1" parent="1" target="BaHC3IfJtnNUTrTAW6SS-4">
          <mxGeometry width="50" height="50" relative="1" as="geometry">
            <mxPoint x="470" y="180" as="sourcePoint" />
            <mxPoint x="490" y="210" as="targetPoint" />
          </mxGeometry>
        </mxCell>
        <mxCell id="BaHC3IfJtnNUTrTAW6SS-13" value="" style="endArrow=none;html=1;rounded=0;exitX=0;exitY=1;exitDx=0;exitDy=0;entryX=0.772;entryY=-0.017;entryDx=0;entryDy=0;endFill=0;entryPerimeter=0;" edge="1" parent="1" source="BaHC3IfJtnNUTrTAW6SS-3" target="BaHC3IfJtnNUTrTAW6SS-5">
          <mxGeometry width="50" height="50" relative="1" as="geometry">
            <mxPoint x="360" y="170" as="sourcePoint" />
            <mxPoint x="330" y="220" as="targetPoint" />
          </mxGeometry>
        </mxCell>
        <mxCell id="BaHC3IfJtnNUTrTAW6SS-14" value="" style="endArrow=none;html=1;rounded=0;exitX=1;exitY=1;exitDx=0;exitDy=0;entryX=0;entryY=0;entryDx=0;entryDy=0;endFill=0;" edge="1" parent="1" source="BaHC3IfJtnNUTrTAW6SS-5" target="BaHC3IfJtnNUTrTAW6SS-7">
          <mxGeometry width="50" height="50" relative="1" as="geometry">
            <mxPoint x="325" y="190" as="sourcePoint" />
            <mxPoint x="370" y="229" as="targetPoint" />
          </mxGeometry>
        </mxCell>
        <mxCell id="BaHC3IfJtnNUTrTAW6SS-15" value="" style="endArrow=none;html=1;rounded=0;exitX=0;exitY=1;exitDx=0;exitDy=0;entryX=1;entryY=0;entryDx=0;entryDy=0;endFill=0;" edge="1" parent="1" source="BaHC3IfJtnNUTrTAW6SS-5" target="BaHC3IfJtnNUTrTAW6SS-6">
          <mxGeometry width="50" height="50" relative="1" as="geometry">
            <mxPoint x="280" y="290" as="sourcePoint" />
            <mxPoint x="260" y="330" as="targetPoint" />
          </mxGeometry>
        </mxCell>
        <mxCell id="BaHC3IfJtnNUTrTAW6SS-16" value="&lt;div style=&quot;text-align: center;&quot;&gt;&lt;font style=&quot;font-size: 11px;&quot;&gt;&lt;span style=&quot;text-align: left; background-color: rgb(251, 251, 251);&quot;&gt;x&lt;sub style=&quot;&quot;&gt;2&lt;/sub&gt;&amp;nbsp;&lt;/span&gt;&lt;span style=&quot;background-color: rgb(255, 255, 255); color: rgb(31, 31, 31); font-family: &amp;quot;Google Sans&amp;quot;, Arial, sans-serif; text-align: left;&quot;&gt;â‰¤ 2&lt;/span&gt;&lt;/font&gt;&lt;/div&gt;" style="text;html=1;align=center;verticalAlign=middle;whiteSpace=wrap;rounded=0;" vertex="1" parent="1">
          <mxGeometry x="170" y="90" width="40" height="20" as="geometry" />
        </mxCell>
        <mxCell id="BaHC3IfJtnNUTrTAW6SS-17" value="&lt;div style=&quot;text-align: center;&quot;&gt;&lt;font style=&quot;&quot;&gt;&lt;span style=&quot;text-align: left; background-color: rgb(251, 251, 251);&quot;&gt;&lt;span style=&quot;font-size: 11px;&quot;&gt;x&lt;/span&gt;&lt;font size=&quot;1&quot;&gt;&lt;sub&gt;1&lt;/sub&gt;&lt;/font&gt;&lt;span style=&quot;font-size: 11px;&quot;&gt;&amp;nbsp;&lt;/span&gt;&lt;/span&gt;&lt;span style=&quot;font-size: 11px; background-color: rgb(255, 255, 255); color: rgb(31, 31, 31); font-family: &amp;quot;Google Sans&amp;quot;, Arial, sans-serif; text-align: left;&quot;&gt;â‰¤ 1&lt;/span&gt;&lt;/font&gt;&lt;/div&gt;" style="text;html=1;align=center;verticalAlign=middle;whiteSpace=wrap;rounded=0;" vertex="1" parent="1">
          <mxGeometry x="290" y="190" width="40" height="20" as="geometry" />
        </mxCell>
        <mxCell id="BaHC3IfJtnNUTrTAW6SS-18" value="&lt;div style=&quot;text-align: center;&quot;&gt;&lt;font style=&quot;font-size: 11px;&quot;&gt;&lt;span style=&quot;text-align: left; background-color: rgb(251, 251, 251);&quot;&gt;x&lt;sub style=&quot;&quot;&gt;2&lt;/sub&gt;&amp;nbsp;&lt;/span&gt;&lt;span style=&quot;background-color: rgb(255, 255, 255); color: rgb(31, 31, 31); font-family: &amp;quot;Google Sans&amp;quot;, Arial, sans-serif; text-align: left;&quot;&gt;â‰¤ 3&lt;/span&gt;&lt;/font&gt;&lt;/div&gt;" style="text;html=1;align=center;verticalAlign=middle;whiteSpace=wrap;rounded=0;" vertex="1" parent="1">
          <mxGeometry x="150" y="290" width="40" height="20" as="geometry" />
        </mxCell>
        <mxCell id="BaHC3IfJtnNUTrTAW6SS-19" value="&lt;span style=&quot;color: rgb(31, 31, 31); font-family: &amp;quot;Google Sans&amp;quot;, Arial, sans-serif; text-align: left; background-color: rgb(255, 255, 255);&quot;&gt;&lt;font style=&quot;font-size: 11px;&quot;&gt;x&lt;sub&gt;2&amp;nbsp;&lt;/sub&gt;â‰¥ 3&lt;/font&gt;&lt;/span&gt;" style="text;html=1;align=center;verticalAlign=middle;whiteSpace=wrap;rounded=0;" vertex="1" parent="1">
          <mxGeometry x="360" y="90" width="50" height="20" as="geometry" />
        </mxCell>
        <mxCell id="BaHC3IfJtnNUTrTAW6SS-20" value="&lt;span style=&quot;color: rgb(31, 31, 31); font-family: &amp;quot;Google Sans&amp;quot;, Arial, sans-serif; text-align: left; background-color: rgb(255, 255, 255);&quot;&gt;&lt;font style=&quot;font-size: 11px;&quot;&gt;x&lt;sub&gt;1&amp;nbsp;&lt;/sub&gt;â‰¥ 2&lt;/font&gt;&lt;/span&gt;" style="text;html=1;align=center;verticalAlign=middle;whiteSpace=wrap;rounded=0;" vertex="1" parent="1">
          <mxGeometry x="490" y="190" width="50" height="20" as="geometry" />
        </mxCell>
        <mxCell id="BaHC3IfJtnNUTrTAW6SS-21" value="&lt;span style=&quot;color: rgb(31, 31, 31); font-family: &amp;quot;Google Sans&amp;quot;, Arial, sans-serif; text-align: left; background-color: rgb(255, 255, 255);&quot;&gt;&lt;font style=&quot;font-size: 11px;&quot;&gt;x&lt;sub&gt;2&amp;nbsp;&lt;/sub&gt;â‰¥ 4&lt;/font&gt;&lt;/span&gt;" style="text;html=1;align=center;verticalAlign=middle;whiteSpace=wrap;rounded=0;" vertex="1" parent="1">
          <mxGeometry x="360" y="290" width="50" height="20" as="geometry" />
        </mxCell>
      </root>
    </mxGraphModel>
  </diagram>
</mxfile>
